HIERARCHY
ROOT mixamorig:Hips
{
	OFFSET 0.000000 201.639420 0.000000
	CHANNELS 6 Xposition Yposition Zposition Xrotation Yrotation Zrotation
	JOINT mixamorig:Spine
	{
		OFFSET 0.006200 19.524994 -2.481800
		CHANNELS 3 Xrotation Yrotation Zrotation
		JOINT mixamorig:Spine1
		{
			OFFSET -0.000900 22.835007 -2.825400
			CHANNELS 3 Xrotation Yrotation Zrotation
			JOINT mixamorig:Spine2
			{
				OFFSET -0.020600 26.552490 -3.193300
				CHANNELS 3 Xrotation Yrotation Zrotation
				JOINT mixamorig:Neck
				{
					OFFSET -0.060000 30.701813 1.352200
					CHANNELS 3 Xrotation Yrotation Zrotation
					JOINT mixamorig:Head
					{
						OFFSET -0.087200 22.547607 3.670900
						CHANNELS 3 Xrotation Yrotation Zrotation
						JOINT mixamorig:HeadTop_End
						{
							OFFSET -0.830600 40.355194 7.893500
							CHANNELS 3 Xrotation Yrotation Zrotation
							End Site
							{
								OFFSET 0.000000 30.592346 0.000000
							}
						}
						JOINT mixamorig:RightEye
						{
							OFFSET -6.302100 18.118591 16.197100
							CHANNELS 3 Xrotation Yrotation Zrotation
							End Site
							{
								OFFSET 0.000000 30.592346 0.000000
							}
						}
						JOINT mixamorig:LeftEye
						{
							OFFSET 6.741500 18.382690 16.401899
							CHANNELS 3 Xrotation Yrotation Zrotation
							End Site
							{
								OFFSET 0.000000 30.592346 0.000000
							}
						}
					}
				}
				JOINT mixamorig:LeftShoulder
				{
					OFFSET 11.924900 18.230499 1.425400
					CHANNELS 3 Xrotation Yrotation Zrotation
					JOINT mixamorig:LeftArm
					{
						OFFSET 25.435989 -0.697632 -5.229300
						CHANNELS 3 Xrotation Yrotation Zrotation
						JOINT mixamorig:LeftForeArm
						{
							OFFSET 54.684776 0.000000 0.000000
							CHANNELS 3 Xrotation Yrotation Zrotation
							JOINT mixamorig:LeftHand
							{
								OFFSET 55.098175 0.000000 0.000000
								CHANNELS 3 Xrotation Yrotation Zrotation
								JOINT mixamorig:LeftHandMiddle1
								{
									OFFSET 23.369751 0.000000 0.000000
									CHANNELS 3 Xrotation Yrotation Zrotation
									JOINT mixamorig:LeftHandMiddle2
									{
										OFFSET 6.378677 0.000000 0.000000
										CHANNELS 3 Xrotation Yrotation Zrotation
										JOINT mixamorig:LeftHandMiddle3
										{
											OFFSET 6.148331 0.000000 0.000000
											CHANNELS 3 Xrotation Yrotation Zrotation
											JOINT mixamorig:LeftHandMiddle4
											{
												OFFSET 6.582504 0.000000 0.000000
												CHANNELS 3 Xrotation Yrotation Zrotation
												End Site
												{
													OFFSET -1.168900 6.395691 1.028606
												}
											}
										}
									}
								}
								JOINT mixamorig:LeftHandThumb1
								{
									OFFSET 7.235672 -3.848206 5.434273
									CHANNELS 3 Xrotation Yrotation Zrotation
									JOINT mixamorig:LeftHandThumb2
									{
										OFFSET 6.568451 -3.792297 3.792300
										CHANNELS 3 Xrotation Yrotation Zrotation
										JOINT mixamorig:LeftHandThumb3
										{
											OFFSET 6.063080 -3.500519 3.500518
											CHANNELS 3 Xrotation Yrotation Zrotation
											JOINT mixamorig:LeftHandThumb4
											{
												OFFSET 4.793182 -2.767334 2.767349
												CHANNELS 3 Xrotation Yrotation Zrotation
												End Site
												{
													OFFSET 0.101639 6.054260 1.275483
												}
											}
										}
									}
								}
								JOINT mixamorig:LeftHandIndex1
								{
									OFFSET 23.101074 -0.309540 4.992809
									CHANNELS 3 Xrotation Yrotation Zrotation
									JOINT mixamorig:LeftHandIndex2
									{
										OFFSET 6.226883 0.000000 0.000000
										CHANNELS 3 Xrotation Yrotation Zrotation
										JOINT mixamorig:LeftHandIndex3
										{
											OFFSET 6.094330 0.000000 0.000000
											CHANNELS 3 Xrotation Yrotation Zrotation
											JOINT mixamorig:LeftHandIndex4
											{
												OFFSET 5.482605 0.000000 0.000000
												CHANNELS 3 Xrotation Yrotation Zrotation
												End Site
												{
													OFFSET -1.427902 5.233032 0.797164
												}
											}
										}
									}
								}
								JOINT mixamorig:LeftHandRing1
								{
									OFFSET 22.299240 0.021149 -3.964172
									CHANNELS 3 Xrotation Yrotation Zrotation
									JOINT mixamorig:LeftHandRing2
									{
										OFFSET 6.321869 0.000000 0.000000
										CHANNELS 3 Xrotation Yrotation Zrotation
										JOINT mixamorig:LeftHandRing3
										{
											OFFSET 5.899796 0.000000 0.000000
											CHANNELS 3 Xrotation Yrotation Zrotation
											JOINT mixamorig:LeftHandRing4
											{
												OFFSET 6.517899 0.000000 0.000000
												CHANNELS 3 Xrotation Yrotation Zrotation
												End Site
												{
													OFFSET -1.637299 6.232208 0.980890
												}
											}
										}
									}
								}
								JOINT mixamorig:LeftHandPinky1
								{
									OFFSET 20.463791 -0.302338 -8.562233
									CHANNELS 3 Xrotation Yrotation Zrotation
									JOINT mixamorig:LeftHandPinky2
									{
										OFFSET 6.908646 0.000000 0.000000
										CHANNELS 3 Xrotation Yrotation Zrotation
										JOINT mixamorig:LeftHandPinky3
										{
											OFFSET 4.622849 0.000000 0.000000
											CHANNELS 3 Xrotation Yrotation Zrotation
											JOINT mixamorig:LeftHandPinky4
											{
												OFFSET 5.216080 0.000000 0.000000
												CHANNELS 3 Xrotation Yrotation Zrotation
												End Site
												{
													OFFSET -0.606308 5.116241 0.814926
												}
											}
										}
									}
								}
							}
						}
					}
				}
				JOINT mixamorig:RightShoulder
				{
					OFFSET -12.001300 18.284088 1.348900
					CHANNELS 3 Xrotation Yrotation Zrotation
					JOINT mixamorig:RightArm
					{
						OFFSET -25.308500 -0.751312 -5.164599
						CHANNELS 3 Xrotation Yrotation Zrotation
						JOINT mixamorig:RightForeArm
						{
							OFFSET -54.684429 0.000000 0.000000
							CHANNELS 3 Xrotation Yrotation Zrotation
							JOINT mixamorig:RightHand
							{
								OFFSET -55.150291 0.000000 0.000000
								CHANNELS 3 Xrotation Yrotation Zrotation
								JOINT mixamorig:RightHandMiddle1
								{
									OFFSET -23.317566 0.000000 0.000000
									CHANNELS 3 Xrotation Yrotation Zrotation
									JOINT mixamorig:RightHandMiddle2
									{
										OFFSET -6.378403 0.000000 0.000000
										CHANNELS 3 Xrotation Yrotation Zrotation
										JOINT mixamorig:RightHandMiddle3
										{
											OFFSET -6.148193 0.000000 0.000000
											CHANNELS 3 Xrotation Yrotation Zrotation
											JOINT mixamorig:RightHandMiddle4
											{
												OFFSET -6.583389 0.000000 0.000000
												CHANNELS 3 Xrotation Yrotation Zrotation
												End Site
												{
													OFFSET 1.171692 6.395905 1.029786
												}
											}
										}
									}
								}
								JOINT mixamorig:RightHandThumb1
								{
									OFFSET -7.190521 -3.860474 5.435846
									CHANNELS 3 Xrotation Yrotation Zrotation
									JOINT mixamorig:RightHandThumb2
									{
										OFFSET -6.567429 -3.791718 3.791708
										CHANNELS 3 Xrotation Yrotation Zrotation
										JOINT mixamorig:RightHandThumb3
										{
											OFFSET -6.062469 -3.500153 3.500166
											CHANNELS 3 Xrotation Yrotation Zrotation
											JOINT mixamorig:RightHandThumb4
											{
												OFFSET -4.792618 -2.767029 2.767022
												CHANNELS 3 Xrotation Yrotation Zrotation
												End Site
												{
													OFFSET -0.100327 6.053253 1.276754
												}
											}
										}
									}
								}
								JOINT mixamorig:RightHandIndex1
								{
									OFFSET -23.048981 -0.310791 4.992554
									CHANNELS 3 Xrotation Yrotation Zrotation
									JOINT mixamorig:RightHandIndex2
									{
										OFFSET -6.227539 0.000000 0.000000
										CHANNELS 3 Xrotation Yrotation Zrotation
										JOINT mixamorig:RightHandIndex3
										{
											OFFSET -6.095047 0.000000 0.000000
											CHANNELS 3 Xrotation Yrotation Zrotation
											JOINT mixamorig:RightHandIndex4
											{
												OFFSET -5.484772 0.000000 0.000000
												CHANNELS 3 Xrotation Yrotation Zrotation
												End Site
												{
													OFFSET 1.420593 5.237305 0.797056
												}
											}
										}
									}
								}
								JOINT mixamorig:RightHandRing1
								{
									OFFSET -22.246323 0.020569 -3.963762
									CHANNELS 3 Xrotation Yrotation Zrotation
									JOINT mixamorig:RightHandRing2
									{
										OFFSET -6.322128 0.000000 0.000000
										CHANNELS 3 Xrotation Yrotation Zrotation
										JOINT mixamorig:RightHandRing3
										{
											OFFSET -5.900024 0.000000 0.000000
											CHANNELS 3 Xrotation Yrotation Zrotation
											JOINT mixamorig:RightHandRing4
											{
												OFFSET -6.518356 0.000000 0.000000
												CHANNELS 3 Xrotation Yrotation Zrotation
												End Site
												{
													OFFSET 1.636398 6.232697 0.982186
												}
											}
										}
									}
								}
								JOINT mixamorig:RightHandPinky1
								{
									OFFSET -20.411011 -0.303314 -8.561701
									CHANNELS 3 Xrotation Yrotation Zrotation
									JOINT mixamorig:RightHandPinky2
									{
										OFFSET -6.907349 0.000000 0.000000
										CHANNELS 3 Xrotation Yrotation Zrotation
										JOINT mixamorig:RightHandPinky3
										{
											OFFSET -4.623840 0.000000 0.000000
											CHANNELS 3 Xrotation Yrotation Zrotation
											JOINT mixamorig:RightHandPinky4
											{
												OFFSET -5.218353 0.000000 0.000000
												CHANNELS 3 Xrotation Yrotation Zrotation
												End Site
												{
													OFFSET 0.602097 5.118835 0.816273
												}
											}
										}
									}
								}
							}
						}
					}
				}
			}
		}
	}
	JOINT mixamorig:LeftUpLeg
	{
		OFFSET 18.168400 -13.561905 -0.039000
		CHANNELS 3 Xrotation Yrotation Zrotation
		JOINT mixamorig:LeftLeg
		{
			OFFSET 0.577358 -80.825211 -3.695000
			CHANNELS 3 Xrotation Yrotation Zrotation
			JOINT mixamorig:LeftFoot
			{
				OFFSET -0.577356 -83.370262 -6.520700
				CHANNELS 3 Xrotation Yrotation Zrotation
				JOINT mixamorig:LeftToeBase
				{
					OFFSET 0.750401 -20.798306 25.135401
					CHANNELS 3 Xrotation Yrotation Zrotation
					JOINT mixamorig:LeftToe_End
					{
						OFFSET -0.000500 0.001200 19.917799
						CHANNELS 3 Xrotation Yrotation Zrotation
						End Site
						{
							OFFSET 0.000000 19.917805 0.000000
						}
					}
				}
			}
		}
	}
	JOINT mixamorig:RightUpLeg
	{
		OFFSET -18.162500 -13.585098 -0.041000
		CHANNELS 3 Xrotation Yrotation Zrotation
		JOINT mixamorig:RightLeg
		{
			OFFSET -0.595024 -80.945297 -3.631900
			CHANNELS 3 Xrotation Yrotation Zrotation
			JOINT mixamorig:RightFoot
			{
				OFFSET 0.595024 -83.218193 -6.561200
				CHANNELS 3 Xrotation Yrotation Zrotation
				JOINT mixamorig:RightToeBase
				{
					OFFSET -0.753601 -20.807106 25.115000
					CHANNELS 3 Xrotation Yrotation Zrotation
					JOINT mixamorig:RightToe_End
					{
						OFFSET 0.000299 0.001700 19.918200
						CHANNELS 3 Xrotation Yrotation Zrotation
						End Site
						{
							OFFSET 0.000000 19.918203 0.000000
						}
					}
				}
			}
		}
	}
}
MOTION
Frames: 6
Frame Time: 0.033333
-0.102054 249.321228 -0.030928 -1.012031 1.626959 0.524139 -2.805571 -0.075947 -0.206316 -5.611677 -0.102272 -0.620862 -5.611671 -0.102273 -0.620862 -27.780247 0.884573 -2.478852 -5.939956 -1.809258 2.604352 -0.000001 -0.000000 0.000000 -0.000001 -0.000000 0.000000 -0.000001 -0.000000 0.000000 7.248365 6.365630 32.385161 -55.495475 -36.316505 6.145794 -14.960189 -23.549551 0.245013 -10.483900 -2.184816 2.838120 -7.057146 -4.106621 -72.543965 -5.071177 -4.491934 -69.918434 0.000005 -0.000008 0.000000 -0.000004 0.000000 -0.000004 -23.505075 8.724694 4.055226 -11.818398 8.158938 13.633694 0.000004 0.000020 -0.000001 0.000001 0.000001 0.000000 -0.793913 -9.944908 -73.989868 -8.742879 -2.825316 -82.562302 -0.000002 0.000000 0.000001 -0.000000 -0.000000 -0.000001 -10.868838 6.242565 -70.785608 -0.409507 -6.819513 -77.462439 0.000001 0.000018 -0.000002 0.000002 -0.000000 -0.000000 -15.058364 6.363978 -69.029102 0.828517 -8.182921 -68.648688 -0.000003 -0.000008 -0.000000 -0.000002 0.000000 0.000002 6.749395 -6.076760 -34.071955 -60.682310 36.402224 4.041633 -30.174099 20.229864 -6.213916 12.932748 8.988748 7.267559 -13.105755 1.845222 86.654986 -5.617172 1.089136 83.764579 0.000014 0.000012 -0.000009 0.000002 -0.000000 -0.000000 -17.327367 6.468793 -26.575904 3.045389 -20.333164 1.155705 -0.000008 0.000005 -0.000005 -0.000001 0.000002 0.000001 -8.189486 4.700896 83.344366 -5.502062 0.854583 81.248877 0.000003 0.000007 -0.000007 -0.000000 0.000000 0.000001 -13.657557 -7.092614 77.657830 -0.194321 7.087315 77.421287 -0.000006 0.000008 -0.000003 0.000000 -0.000000 0.000001 -17.941877 -11.668114 76.734915 1.092361 11.886543 73.232803 -0.000002 0.000016 -0.000001 0.000000 -0.000000 -0.000002 -25.434673 9.053810 2.462745 43.865650 14.404218 1.462144 33.386586 1.635036 6.592306 -0.000005 0.000008 0.000014 -0.000000 -0.000001 0.000001 -8.400339 -8.473413 1.983036 23.140923 -20.001441 -7.917566 46.527057 1.881230 4.430579 0.000010 -0.000009 0.000007 -0.000003 0.000001 0.000001 
0.045784 249.486694 0.854924 -0.975093 1.649785 0.403477 -2.867583 -0.115063 -0.160704 -5.735974 -0.181146 -0.525297 -5.735972 -0.181146 -0.525297 -28.401342 1.039029 -1.857511 -5.917114 -1.788487 2.256492 0.000000 -0.000000 0.000000 0.000000 -0.000000 0.000000 0.000000 -0.000000 0.000000 7.265457 6.261389 32.140159 -56.249705 -35.543481 5.111556 -14.872950 -25.670732 0.422813 -9.623555 -0.945536 5.223987 -7.035865 -4.105408 -72.449729 -5.078406 -4.496115 -69.996639 0.000008 -0.000009 0.000008 -0.000001 0.000001 -0.000001 -23.504196 8.725449 4.107474 -11.771768 8.154688 13.546315 0.000003 0.000018 -0.000000 -0.000002 -0.000000 0.000000 -0.787403 -9.932792 -73.884547 -8.747790 -2.830374 -82.623132 -0.000004 0.000001 -0.000003 -0.000001 0.000000 0.000001 -10.848239 6.238407 -70.710565 -0.415792 -6.816371 -77.543541 0.000004 0.000018 0.000002 0.000000 -0.000001 -0.000003 -15.029254 6.361750 -68.960356 0.824701 -8.180773 -68.744748 -0.000005 -0.000008 -0.000000 0.000002 -0.000001 -0.000002 6.796302 -5.931184 -33.936956 -60.992783 36.096249 4.685005 -30.075396 21.653172 -6.252027 13.464693 8.145973 5.170031 -13.093201 1.854236 86.591765 -5.626294 1.094574 83.865188 0.000012 0.000012 -0.000009 0.000001 0.000000 -0.000001 -17.321204 6.459584 -26.553882 3.049391 -20.331955 1.152172 -0.000008 0.000004 -0.000004 -0.000002 0.000000 0.000002 -8.179907 4.703472 83.276344 -5.511090 0.859116 81.339603 0.000003 0.000007 -0.000006 0.000001 0.000000 -0.000006 -13.645686 -7.080566 77.609951 -0.207888 7.086539 77.534375 -0.000006 0.000005 -0.000001 -0.000003 -0.000001 0.000005 -17.926301 -11.651843 76.690525 1.078188 11.885114 73.353670 -0.000001 0.000015 -0.000001 0.000000 -0.000000 -0.000000 -24.270433 9.189747 2.497107 42.584819 15.117768 0.910512 35.470829 1.430949 6.159128 0.000922 0.023856 -0.048082 0.000000 0.000000 0.000001 -7.684589 -8.535943 1.899418 22.324523 -20.706157 -7.609662 48.613752 1.571019 3.194696 0.018983 -0.012831 -0.026033 0.000000 -0.000000 -0.000000 
0.137886 249.562729 1.623080 -0.806257 1.797587 0.262059 -3.004282 -0.114330 -0.096237 -6.009270 -0.180314 -0.401206 -6.009268 -0.180314 -0.401206 -29.669929 1.291939 -1.299955 -4.954931 -1.754468 1.924271 -0.000004 -0.000000 0.000000 -0.000004 -0.000000 0.000000 -0.000004 -0.000000 0.000000 7.309378 5.983556 31.503998 -58.616595 -36.322926 2.766367 -14.081907 -26.014075 0.866610 -7.823195 -0.512822 7.676164 -6.978435 -4.102226 -72.188563 -5.097138 -4.506903 -70.199509 0.000004 -0.000009 0.000003 0.000002 0.000000 0.000004 -23.500953 8.727489 4.243581 -11.654002 8.141423 13.326266 -0.000001 0.000019 -0.000001 0.000000 -0.000002 -0.000001 -0.768985 -9.899685 -73.594202 -8.760448 -2.843662 -82.780281 -0.000003 0.000000 -0.000007 -0.000000 0.000000 -0.000007 -10.792595 6.226872 -70.500345 -0.431963 -6.807973 -77.753910 0.000000 0.000017 -0.000003 -0.000000 0.000000 0.000002 -14.950750 6.355524 -68.766877 0.814894 -8.175058 -68.994575 -0.000001 -0.000010 0.000002 0.000001 0.000000 0.000000 6.919294 -5.546804 -33.577968 -61.898166 36.497519 5.309326 -29.515518 22.008039 -6.279912 14.611964 7.682099 2.867446 -13.060552 1.877480 86.427527 -5.650096 1.108543 84.126545 0.000009 0.000012 -0.000010 -0.000001 0.000000 -0.000000 -17.305213 6.435615 -26.496638 3.059774 -20.328810 1.143040 -0.000007 0.000006 -0.000004 0.000000 0.000001 0.000003 -8.155063 4.710020 83.099647 -5.534700 0.870780 81.575381 0.000004 0.000008 -0.000008 -0.000000 0.000000 -0.000003 -13.614756 -7.049422 77.485593 -0.242940 7.084370 77.828148 -0.000008 0.000006 0.000001 0.000001 -0.000001 0.000004 -17.885742 -11.609753 76.575279 1.041554 11.881269 73.667654 0.000001 0.000014 -0.000001 0.000000 0.000000 0.000003 -23.436805 9.136968 2.496794 41.456506 15.358681 0.725688 37.679978 1.248410 5.858127 -0.006863 0.046084 -0.037585 0.000002 -0.000000 -0.000002 -7.407946 -8.824055 1.764906 21.996341 -21.591512 -7.345407 50.330428 1.350928 2.342738 -0.003436 -0.006166 0.001437 0.000001 0.000000 0.000001 
0.166444 249.652069 2.283471 -0.539935 2.074830 0.078463 -3.219781 -0.090811 -0.014027 -6.440030 -0.133301 -0.253373 -6.440032 -0.133302 -0.253374 -31.205273 1.589696 -0.807985 -3.404676 -1.708606 1.611310 -0.000005 -0.000000 -0.000000 -0.000005 -0.000000 -0.000000 -0.000005 -0.000000 -0.000000 7.370596 5.552282 30.540344 -62.451193 -38.179378 -0.932419 -12.822113 -24.973086 1.388094 -5.275618 -0.730980 10.398834 -6.888739 -4.096815 -71.771723 -5.125580 -4.523157 -70.506690 0.000006 -0.000008 0.000005 -0.000000 -0.000000 -0.000001 -23.494684 8.730890 4.450526 -11.479730 8.117781 13.001482 -0.000001 0.000019 0.000000 0.000003 -0.000000 0.000001 -0.739453 -9.847425 -73.132516 -8.779581 -2.863889 -83.017282 -0.000004 0.000000 0.000004 0.000001 0.000001 -0.000004 -10.705497 6.208922 -70.161896 -0.456316 -6.795008 -78.072621 -0.000002 0.000019 -0.000001 -0.000000 -0.000001 -0.000000 -14.828163 6.346082 -68.454362 0.800128 -8.166251 -69.373733 -0.000004 -0.000007 0.000002 0.000003 0.000001 0.000003 7.102778 -4.954321 -33.023627 -63.291524 37.339514 6.176227 -28.589053 21.889529 -6.252099 16.263886 7.315997 0.363286 -13.010897 1.912397 86.178450 -5.686477 1.129389 84.522887 0.000013 0.000012 -0.000010 0.000002 -0.000001 -0.000001 -17.280920 6.399245 -26.409849 3.075551 -20.324042 1.129204 -0.000006 0.000004 -0.000002 0.000000 0.000001 -0.000001 -8.117325 4.719719 82.831760 -5.570664 0.888229 81.932825 0.000004 0.000008 -0.000005 0.000001 0.000001 -0.000003 -13.567665 -7.002457 77.297012 -0.295831 7.080759 78.273620 -0.000009 0.000006 -0.000001 -0.000002 -0.000001 -0.000002 -17.823998 -11.546232 76.400488 0.986450 11.875114 74.143623 -0.000004 0.000011 -0.000002 0.000000 0.000001 -0.000000 -22.918133 9.034528 2.681771 40.559613 15.642902 0.505123 39.895084 1.078150 5.733429 -0.006548 0.034378 0.006298 -0.000000 0.000001 -0.000001 -7.422842 -9.170208 1.603958 21.956978 -22.834350 -7.018871 51.562881 1.241826 1.870072 -0.021097 0.017677 0.027475 0.000001 0.000000 -0.000001 
0.135882 250.029572 2.856720 -0.239576 2.447539 -0.166143 -3.531965 -0.063935 0.077237 -7.064209 -0.078400 -0.096867 -7.064213 -0.078399 -0.096867 -32.629822 1.927537 -0.453482 -1.542397 -1.671678 1.368640 -0.000002 0.000000 0.000000 -0.000002 0.000000 0.000000 -0.000002 0.000000 0.000000 7.442162 4.944654 29.220628 -67.865326 -40.484570 -6.423931 -11.115756 -23.355598 1.961526 -1.843626 -1.239320 13.452187 -6.761500 -4.088122 -71.166992 -5.164737 -4.545302 -70.927341 0.000006 -0.000010 -0.000000 0.000001 -0.000000 0.000002 -23.483770 8.735911 4.735171 -11.247624 8.079601 12.570323 0.000003 0.000020 0.000001 0.000001 0.000002 0.000003 -0.696490 -9.772604 -72.465350 -8.805791 -2.891843 -83.340411 -0.000002 0.000001 0.000002 0.000001 0.000000 -0.000005 -10.581809 6.183943 -69.666563 -0.489363 -6.776785 -78.509104 -0.000002 0.000018 -0.000002 -0.000000 -0.000001 -0.000001 -14.654528 6.333528 -67.995339 0.780156 -8.153843 -69.894323 -0.000005 -0.000010 0.000003 -0.000001 0.000002 -0.000001 7.345930 -4.125489 -32.248117 -65.161910 38.185467 7.895022 -27.244482 22.301493 -6.284923 18.432278 6.651855 -2.212133 -12.942571 1.959731 85.836852 -5.736849 1.157267 85.066352 0.000011 0.000012 -0.000012 0.000001 -0.000000 -0.000002 -17.247594 6.349358 -26.290814 3.097194 -20.317525 1.110253 -0.000006 0.000001 -0.000006 -0.000001 -0.000002 0.000001 -8.065534 4.732640 82.464337 -5.620372 0.911670 82.423000 0.000005 0.000007 -0.000002 0.000002 0.000000 -0.000001 -13.502796 -6.938490 77.038380 -0.367827 7.075068 78.884484 -0.000008 0.000004 -0.000001 -0.000001 0.000001 -0.000001 -17.738975 -11.459673 76.160721 0.911672 11.865949 74.796254 -0.000003 0.000013 0.000001 0.000000 -0.000003 -0.000001 -22.414251 9.064660 3.160254 39.586991 16.597585 -0.152719 42.112365 0.964720 5.982425 0.004037 -0.019834 0.051880 -0.000001 -0.000000 0.000000 -7.339049 -9.425459 1.408422 21.673167 -24.634368 -6.462988 52.334036 1.237692 1.692051 -0.009835 0.013613 -0.002387 -0.000001 -0.000001 -0.000002 
0.083992 251.145447 3.423634 -0.082571 2.782563 -0.459338 -3.928725 -0.065062 0.152452 -7.857709 -0.077029 0.026366 -7.857713 -0.077029 0.026366 -33.468538 2.319610 -0.341790 0.154299 -1.685865 1.293428 0.000002 -0.000000 -0.000000 0.000002 -0.000000 -0.000000 0.000002 -0.000000 -0.000000 7.507768 4.177447 27.607983 -74.260576 -41.961656 -13.733867 -8.879413 -22.967283 2.807849 2.456116 -1.172031 16.542404 -6.599981 -4.075018 -70.379601 -5.212888 -4.572133 -71.441320 0.000006 -0.000008 -0.000001 -0.000002 0.000000 0.000002 -23.467188 8.742796 5.084878 -10.973325 8.024553 12.062879 0.000001 0.000020 -0.000001 0.000003 0.000001 -0.000003 -0.640826 -9.676523 -71.600381 -8.837867 -2.926320 -83.733256 -0.000002 -0.000000 0.000002 -0.000002 0.000000 -0.000000 -10.424419 6.153563 -69.015681 -0.529228 -6.753788 -79.042692 -0.000001 0.000017 -0.000001 -0.000000 0.000002 0.000001 -14.434410 6.319500 -67.389932 0.756086 -8.138246 -70.532358 -0.000002 -0.000008 0.000002 -0.000001 0.000001 -0.000003 7.627084 -3.086656 -31.277376 -67.245275 38.282428 11.181956 -25.397112 24.562788 -6.697472 20.960143 5.288507 -4.601152 -12.858520 2.016751 85.418571 -5.799287 1.190377 85.731585 0.000011 0.000013 -0.000012 0.000003 0.000000 -0.000001 -17.206742 6.288245 -26.145083 3.123676 -20.309535 1.087030 -0.000008 0.000003 -0.000005 0.000000 -0.000001 0.000003 -8.002040 4.747853 82.014603 -5.681748 0.939584 83.023026 0.000004 0.000007 -0.000003 0.000001 -0.000001 0.000002 -13.422898 -6.860934 76.721773 -0.455064 7.067011 79.632137 -0.000008 0.000006 -0.000002 -0.000000 0.000001 -0.000001 -17.634341 -11.354597 75.867166 0.821387 11.853648 75.594888 0.000000 0.000015 -0.000003 0.000003 0.000000 0.000001 -21.325447 9.401564 3.887718 38.084711 18.703706 -1.463500 44.324414 0.979967 6.741717 0.008340 -0.061225 0.058221 -0.000000 0.000001 -0.000001 -6.582038 -9.554588 1.148860 20.577818 -26.965964 -5.700843 52.974042 1.189197 1.454782 0.020238 -0.002623 -0.038475 0.000001 0.000001 -0.000001 
